<svg width="21" height="23" viewBox="0 0 21 23" fill="none" xmlns="http://www.w3.org/2000/svg">
<path d="M20.4871 15.7002C18.5679 15.2532 17.0662 13.5258 17.0662 11.384C17.0662 9.5883 18.137 7.98187 19.7941 7.29152C20.2065 7.11972 20.3344 6.59649 20.0477 6.25382C19.1338 5.16133 17.8883 4.60742 16.3459 4.60742C13.1878 4.60742 12.7997 6.33645 10.8234 6.33645C8.84734 6.33645 8.4586 4.60742 5.30087 4.60742C1.44183 4.60742 0 8.02329 0 11.8922C4.42104e-05 18.3251 3.50686 22.635 6.56564 22.635C8.30377 22.635 9.27676 22.1881 9.98717 21.8618C10.801 21.488 10.8456 21.4879 11.6597 21.8618C12.3701 22.1881 13.3431 22.635 15.0812 22.635C17.8521 22.635 20.0521 19.5133 20.9703 16.5419C21.0837 16.1748 20.8619 15.7874 20.4871 15.7002Z" fill="#131313"/>
<path d="M15.0967 0.594618C15.0601 0.291335 14.8211 0.052289 14.5178 0.0156828C14.4424 0.00653122 12.6528 -0.192416 11.3269 1.13398C10.0012 2.4603 10.2 4.2502 10.2092 4.32575C10.2457 4.62899 10.4848 4.86804 10.7881 4.90469C11.7746 5.02424 13.1015 4.66419 13.9789 3.78639C15.3047 2.46008 15.1059 0.670174 15.0967 0.594618Z" fill="#131313"/>
</svg>
