<svg width="25" height="20" viewBox="0 0 25 20" fill="none" xmlns="http://www.w3.org/2000/svg">
<path d="M21.0957 1.07162e-05C20.8233 0.00113301 20.5624 0.109767 20.3698 0.302276L17.1009 3.57102C15.7621 3.12928 14.2481 2.86677 12.5 2.86677C6.42218 2.86677 3.16941 6.03571 0.302674 8.90243C0.206716 8.99837 0.130596 9.11228 0.0786631 9.23764C0.0267299 9.363 0 9.49736 0 9.63306C0 9.76875 0.0267299 9.90311 0.0786631 10.0285C0.130596 10.1538 0.206716 10.2677 0.302674 10.3637C1.89366 11.9547 3.60378 13.6385 5.84945 14.8225L3.16934 17.5026C3.07337 17.5985 2.99724 17.7124 2.9453 17.8378C2.89336 17.9632 2.86662 18.0975 2.86662 18.2332C2.86662 18.3689 2.89336 18.5033 2.9453 18.6286C2.99724 18.754 3.07337 18.8679 3.16934 18.9638C3.36307 19.1575 3.6258 19.2663 3.89974 19.2663C4.17369 19.2663 4.43642 19.1575 4.63015 18.9638L7.89868 15.6953C9.23751 16.1372 10.7517 16.3998 12.5 16.3998C18.5778 16.3998 21.8306 13.2304 24.6973 10.3637C24.7933 10.2677 24.8694 10.1538 24.9213 10.0285C24.9733 9.90311 25 9.76875 25 9.63306C25 9.49736 24.9733 9.363 24.9213 9.23764C24.8694 9.11228 24.7933 8.99837 24.6973 8.90243C23.1063 7.31143 21.3961 5.62756 19.1503 4.44375L21.8306 1.76352C21.9265 1.66759 22.0027 1.55369 22.0546 1.42832C22.1066 1.30296 22.1333 1.1686 22.1333 1.0329C22.1333 0.897202 22.1066 0.762835 22.0546 0.637473C22.0027 0.512111 21.9265 0.39821 21.8306 0.302276C21.7341 0.205878 21.6195 0.129537 21.4934 0.0776585C21.3672 0.0257796 21.2321 -0.000610461 21.0957 1.07162e-05ZM12.5 4.93286C13.59 4.93286 14.5607 5.03914 15.44 5.23203L14.4225 6.24954C13.8553 5.92195 13.1992 5.73352 12.5 5.73353C10.3584 5.73352 8.60015 7.49171 8.60015 9.63327C8.60015 10.3316 8.78812 10.9885 9.11436 11.5577L7.36664 13.3053C5.45936 12.4356 4.00166 11.1 2.51932 9.63284C5.09276 7.08576 7.58925 4.93286 12.5 4.93286ZM17.6331 5.96084C19.5406 6.8303 20.9983 8.16568 22.4807 9.63284C19.9072 12.18 17.4109 14.3337 12.5 14.3337C11.4099 14.3337 10.4391 14.2274 9.55968 14.0344L10.5753 13.0188C11.1445 13.3451 11.8016 13.533 12.5 13.533C14.5708 13.533 16.2678 11.8851 16.3787 9.8403C16.3927 9.77217 16.3997 9.70281 16.3997 9.63327C16.3996 9.56357 16.3924 9.49407 16.3783 9.42582C16.3447 8.80854 16.1658 8.22792 15.8766 7.7174L17.6331 5.96084ZM12.5 7.79962C12.6169 7.79962 12.7308 7.81063 12.8412 7.83079L10.6975 9.9745C10.6773 9.86409 10.6663 9.75019 10.6663 9.63327C10.6663 8.60832 11.4751 7.79961 12.5 7.79962ZM14.3024 9.29161C14.3226 9.40215 14.3337 9.5162 14.3337 9.63327C14.3337 10.6582 13.5249 11.4669 12.5 11.4669C12.3829 11.4669 12.2689 11.4559 12.1583 11.4356L14.3024 9.29161Z" fill="#525252"/>
</svg>
