<svg width="21" height="22" viewBox="0 0 21 22" fill="none" xmlns="http://www.w3.org/2000/svg">
<path d="M10.536 21.072C4.71522 21.072 0 16.3568 0 10.536C0 4.71522 4.71522 0 10.536 0C13.3808 0 15.7587 1.04796 17.5813 2.74554L14.6114 5.71538V5.70925C13.5059 4.65516 12.1024 4.11586 10.536 4.11586C7.05996 4.11586 4.23475 7.05261 4.23475 10.5287C4.23475 14.0047 7.05996 16.9488 10.536 16.9488C13.6897 16.9488 15.8371 15.1446 16.2784 12.6687H10.536V8.55898H20.4457C20.5768 9.26252 20.6492 10.0016 20.6492 10.7713C20.6492 16.7919 16.6191 21.072 10.536 21.072Z" fill="#131313"/>
</svg>
