<svg width="88" height="81" viewBox="0 0 88 81" fill="none" xmlns="http://www.w3.org/2000/svg">
<path d="M6.344 64.36H14.196V68H1.3V64.62L9.1 53.388H1.3V49.748H14.196V53.128L6.344 64.36ZM30.7763 60.512C30.7763 60.928 30.7503 61.3613 30.6983 61.812H20.6363C20.7056 62.7133 20.9916 63.4067 21.4943 63.892C22.0143 64.36 22.6469 64.594 23.3923 64.594C24.5016 64.594 25.2729 64.126 25.7063 63.19H30.4383C30.1956 64.1433 29.7536 65.0013 29.1123 65.764C28.4883 66.5267 27.6996 67.1247 26.7463 67.558C25.7929 67.9913 24.7269 68.208 23.5483 68.208C22.1269 68.208 20.8616 67.9047 19.7523 67.298C18.6429 66.6913 17.7763 65.8247 17.1523 64.698C16.5283 63.5713 16.2163 62.254 16.2163 60.746C16.2163 59.238 16.5196 57.9207 17.1263 56.794C17.7503 55.6673 18.6169 54.8007 19.7263 54.194C20.8356 53.5873 22.1096 53.284 23.5483 53.284C24.9523 53.284 26.2003 53.5787 27.2923 54.168C28.3843 54.7573 29.2336 55.598 29.8403 56.69C30.4643 57.782 30.7763 59.056 30.7763 60.512ZM26.2263 59.342C26.2263 58.5793 25.9663 57.9727 25.4463 57.522C24.9263 57.0713 24.2763 56.846 23.4963 56.846C22.7509 56.846 22.1183 57.0627 21.5983 57.496C21.0956 57.9293 20.7836 58.5447 20.6623 59.342H26.2263ZM41.9618 53.336C43.6604 53.336 45.0124 53.8907 46.0178 55C47.0404 56.092 47.5518 57.6 47.5518 59.524V68H43.1318V60.122C43.1318 59.1513 42.8804 58.3973 42.3778 57.86C41.8751 57.3227 41.1991 57.054 40.3498 57.054C39.5004 57.054 38.8244 57.3227 38.3218 57.86C37.8191 58.3973 37.5678 59.1513 37.5678 60.122V68H33.1218V53.492H37.5678V55.416C38.0184 54.7747 38.6251 54.272 39.3878 53.908C40.1504 53.5267 41.0084 53.336 41.9618 53.336ZM59.4813 53.336C61.18 53.336 62.532 53.8907 63.5373 55C64.56 56.092 65.0713 57.6 65.0713 59.524V68H60.6513V60.122C60.6513 59.1513 60.4 58.3973 59.8973 57.86C59.3946 57.3227 58.7186 57.054 57.8693 57.054C57.02 57.054 56.344 57.3227 55.8413 57.86C55.3386 58.3973 55.0873 59.1513 55.0873 60.122V68H50.6413V53.492H55.0873V55.416C55.538 54.7747 56.1446 54.272 56.9073 53.908C57.67 53.5267 58.528 53.336 59.4813 53.336ZM82.9808 53.492L73.8808 74.89H69.0968L72.4248 67.506L66.5228 53.492H71.4888L74.8428 62.566L78.1708 53.492H82.9808Z" fill="#131313"/>
<path fill-rule="evenodd" clip-rule="evenodd" d="M44.5005 0C48.027 0 50.8871 2.83567 50.8871 6.33277C50.8871 10.2507 46.7299 12.012 47.6748 12.2114C50.8537 12.8815 53.7273 14.0012 55.6187 15.9305C57.3301 17.677 59.7791 24.0322 59.9623 26.5016C60.0738 27.9988 58.9194 29.596 59.0191 29.5843C60.8621 29.3542 66.3608 38.4072 55.162 38.7975C48.7376 39.0227 40.241 39.0834 33.8383 38.8594C22.6395 38.4685 28.1374 29.4157 29.9812 29.6452C30.0801 29.658 28.9265 28.0607 29.038 26.5629C29.2204 24.0937 31.6696 17.7383 33.3816 15.9918C35.2723 14.0633 38.146 12.9427 41.3248 12.2726C42.622 11.9996 38.1126 10.5908 38.1126 6.33277C38.1126 2.83567 40.9725 0 44.5005 0ZM44.5896 23.1578C44.087 23.345 43.4409 24.323 42.552 25.2134C41.6639 26.1032 40.5325 26.9041 39.635 27.4109C38.7376 27.9185 38.073 28.1326 37.7048 28.2749C37.3371 28.4173 37.2652 28.4885 37.7412 28.6487C38.2171 28.8088 39.2402 29.0579 40.4787 29.6624C41.7171 30.2686 43.1716 31.229 43.9075 31.7093C44.644 32.1899 44.6613 32.1899 45.1639 31.8254C45.6671 31.4603 46.6544 30.7307 47.8382 30.0986C49.0234 29.4671 50.4056 28.9328 51.097 28.7198C51.7881 28.5062 51.7881 28.613 51.3396 28.3994C50.8909 28.186 49.9934 27.6521 48.997 26.8955C48.0004 26.1389 46.9056 25.1602 46.1784 24.368C45.4511 23.5763 45.0922 22.9706 44.5896 23.1578Z" fill="#131313"/>
</svg>
