<svg width="217" height="416" viewBox="0 0 217 416" fill="none" xmlns="http://www.w3.org/2000/svg">
<path fill-rule="evenodd" clip-rule="evenodd" d="M11.0063 0C52.5177 0 86.1854 33.4463 86.1854 74.6942C86.1854 120.906 37.2489 141.68 48.3724 144.032C85.7923 151.935 119.619 165.142 141.882 187.899C162.029 208.498 190.856 283.457 193.013 312.583C194.326 330.243 180.736 349.081 181.911 348.944C203.606 346.229 268.332 453.008 136.507 457.612C60.8831 460.268 -39.1349 460.984 -114.503 458.341C-246.329 453.731 -181.612 346.954 -159.907 349.662C-158.742 349.813 -172.322 330.973 -171.01 313.306C-168.862 284.182 -140.032 209.221 -119.879 188.621C-97.6228 165.874 -63.796 152.658 -26.3761 144.754C-11.1073 141.533 -64.1891 124.917 -64.1891 74.6942C-64.1891 33.4463 -30.5238 0 11.0063 0ZM12.0543 273.143C6.13815 275.351 -1.46695 286.887 -11.9308 297.389C-22.3852 307.884 -35.703 317.331 -46.2674 323.308C-56.8319 329.295 -64.6546 331.821 -68.9894 333.499C-73.3171 335.179 -74.164 336.018 -68.5613 337.907C-62.9586 339.797 -50.9157 342.734 -36.337 349.864C-21.7583 357.015 -4.63675 368.342 4.02578 374.008C12.6953 379.676 12.8988 379.676 18.815 375.376C24.7381 371.07 36.36 362.464 50.2954 355.009C64.2471 347.561 80.5172 341.258 88.6557 338.746C96.7919 336.227 96.7919 337.487 91.512 334.967C86.2298 332.451 75.6654 326.153 63.936 317.229C52.2043 308.305 39.3169 296.762 30.7573 287.417C22.1954 278.079 17.9705 270.936 12.0543 273.143Z" fill="#EBEBEB"/>
</svg>
